<?xml version="1.0" encoding="UTF-8"?>
<svg id="Layer_1" data-name="Layer 1" xmlns="http://www.w3.org/2000/svg" viewBox="0 0 800 800">
  <defs>
    <style>
      .cls-1 {
        fill: #fff;
      }
    </style>
  </defs>
  <g id="SVGRepo_iconCarrier" data-name="SVGRepo iconCarrier">
    <path class="cls-1" d="m597.83,271.03v79.37c0,34.95-25.78,63.95-59.55,68.75-5.42.77-9.89-3.75-9.89-9.22v-4.96c0-73.81-59.92-133.93-133.93-133.93h-4.96c-5.48,0-10-4.47-9.22-9.89,4.82-33.63,33.81-59.55,68.74-59.55h79.37c38.49,0,69.44,31.15,69.44,69.44Z"/>
    <path class="cls-1" d="m394.46,300.79h-94.25c-54.76,0-99.21,44.44-99.21,99.21v99.21c0,54.76,44.44,99.21,99.21,99.21h99.21c54.76,0,99.21-44.44,99.21-99.21v-94.25c0-57.54-46.63-104.17-104.17-104.17Z"/>
  </g>
</svg>