<!DOCTYPE svg PUBLIC "-//W3C//DTD SVG 1.1//EN" "http://www.w3.org/Graphics/SVG/1.1/DTD/svg11.dtd">
<!-- Uploaded to: SVG Repo, www.svgrepo.com, Transformed by: SVG Repo Mixer Tools -->
<svg width="800px" height="800px" viewBox="-8.16 -8.16 40.32 40.32" fill="none" xmlns="http://www.w3.org/2000/svg">
<g id="SVGRepo_bgCarrier" stroke-width="0">
<rect x="-8.16" y="-8.16" width="40.32" height="40.32" rx="0" fill="#000000" strokewidth="0"/>
</g>
<g id="SVGRepo_tracerCarrier" stroke-linecap="round" stroke-linejoin="round"/>
<g id="SVGRepo_iconCarrier"> <path d="M21.9707 5.5V9.5C21.9707 11.2615 20.6712 12.7232 18.9692 12.9649C18.6958 13.0038 18.4707 12.7761 18.4707 12.5V12.25C18.4707 8.53 15.4507 5.5 11.7207 5.5H11.4707C11.1946 5.5 10.9669 5.27486 11.0061 5.0015C11.2488 3.30678 12.7099 2 14.4707 2H18.4707C20.4107 2 21.9707 3.57 21.9707 5.5Z" fill="#ffffff"/> <path d="M11.7207 7H10.9707H6.9707C4.2107 7 1.9707 9.24 1.9707 12V17C1.9707 19.76 4.2107 22 6.9707 22H11.9707C14.7307 22 16.9707 19.76 16.9707 17V13V12.25C16.9707 9.35 14.6207 7 11.7207 7Z" fill="#ffffff"/> </g>
</svg>