<?xml version="1.0" encoding="UTF-8"?>
<svg id="Layer_1" data-name="Layer 1" xmlns="http://www.w3.org/2000/svg" width="24" height="24" viewBox="0 0 24 24">
  <defs>
    <style>
      .cls-1 {
        fill: #58656d;
      }
    </style>
  </defs>
  <g id="surface1">
    <path class="cls-1" d="m24,4.2v4.8c0,2.1-1.6,3.9-3.6,4.1-.3,0-.6-.2-.6-.5v-.3c0-4.4-3.6-8.1-8.1-8.1h-.3c-.4,0-.6-.2-.5-.6.3-2,2-3.6,4.1-3.6h4.8c2.3,0,4.2,1.9,4.2,4.2Z"/>
    <path class="cls-1" d="m11.7,6h-5.7c-3.3,0-6,2.7-6,6v6c0,3.3,2.7,6,6,6h6c3.3,0,6-2.7,6-6v-5.7c0-3.5-2.8-6.3-6.3-6.3Z"/>
  </g>
</svg>