<?xml version="1.0" encoding="UTF-8"?>
<svg xmlns="http://www.w3.org/2000/svg" xmlns:xlink="http://www.w3.org/1999/xlink" width="24px" height="24px" viewBox="0 0 24 24" version="1.1">
<g id="surface1">
<path style=" stroke:none;fill-rule:nonzero;fill:rgb(100%,100%,100%);fill-opacity:1;" d="M 24 4.199219 L 24 9 C 24 11.101562 22.441406 12.898438 20.398438 13.140625 C 20.101562 13.140625 19.800781 12.898438 19.800781 12.601562 L 19.800781 12.300781 C 19.800781 7.859375 16.199219 4.199219 11.699219 4.199219 L 11.398438 4.199219 C 11.039062 4.199219 10.800781 3.960938 10.859375 3.601562 C 11.160156 1.558594 12.898438 0 15 0 L 19.800781 0 C 22.140625 0 24 1.859375 24 4.199219 Z M 24 4.199219 "/>
<path style=" stroke:none;fill-rule:nonzero;fill:rgb(100%,100%,100%);fill-opacity:1;" d="M 11.699219 6 L 6 6 C 2.699219 6 0 8.699219 0 12 L 0 18 C 0 21.300781 2.699219 24 6 24 L 12 24 C 15.300781 24 18 21.300781 18 18 L 18 12.300781 C 18 8.820312 15.179688 6 11.699219 6 Z M 11.699219 6 "/>
</g>
</svg>
