<?xml version="1.0" encoding="UTF-8"?>
<svg id="Layer_1" data-name="Layer 1" xmlns="http://www.w3.org/2000/svg" width="24" height="24" viewBox="0 0 24 24">
  <defs>
    <style>
      .cls-1, .cls-2 {
        fill: #58656d;
      }

      .cls-2 {
        fill-rule: evenodd;
      }
    </style>
  </defs>
  <g id="surface1">
    <path class="cls-2" d="m9.4,0c1.5,0,2.6,1.2,2.6,2.6v18.7c0,1.5-1.2,2.6-2.6,2.6H2.6c-1.5,0-2.6-1.2-2.6-2.6V2.6C0,1.2,1.2,0,2.6,0h6.7Zm12.9,12.1c1,.4,1.7,1.3,1.8,2.3v6.9c0,1.4-1.1,2.6-2.5,2.6h-8.2v-3l8.9-8.9h0Zm-16.2,3.8c-1.1,0-2,.9-2,2s.9,2,2,2,2-.9,2-2-.9-2-2-2ZM14.2,1.3c1-1,2.6-1,3.6-.2l4.9,4.9c1,1,1,2.4.3,3.5l-9.6,9.7V2.2l.8-.8h0Z"/>
    <path class="cls-1" d="m3.4,15.4h5.6v5.6H3.4v-5.6Z"/>
  </g>
</svg>