<?xml version="1.0" encoding="UTF-8"?>
<svg id="Layer_1" data-name="Layer 1" xmlns="http://www.w3.org/2000/svg" viewBox="0 0 800 800">
  <defs>
    <style>
      .cls-1, .cls-2 {
        fill: #fff;
      }

      .cls-2 {
        fill-rule: evenodd;
      }

      .cls-3 {
        fill: none;
      }
    </style>
  </defs>
  <g id="SVGRepo_iconCarrier" data-name="SVGRepo iconCarrier">
    <g id="_页面-1" data-name=" 页面-1">
      <g id="Design">
        <g id="palette_2_fill" data-name="palette 2 fill">
          <path id="MingCute" class="cls-3" d="m666.67,133.33v533.33H133.33V133.33h533.34Zm-253.48,516.84l-.26.04-1.58.79-.42.08h0l-.34-.08-1.58-.79c-.22-.07-.41-.01-.52.12l-.09.24-.38,9.5.11.45.24.27,2.3,1.64.33.09h0l.26-.09,2.3-1.64.28-.36h0l.07-.37-.38-9.5c-.04-.23-.19-.37-.36-.4h.02Zm5.89-2.5l-.31.04-4.1,2.05-.22.23h0l-.06.25.4,9.55.11.28h0l.19.16,4.47,2.06c.27.08.51,0,.63-.18l.09-.31-.76-13.66c-.05-.27-.23-.43-.43-.47h0Zm-15.9.04c-.22-.11-.46-.05-.61.12l-.13.31-.76,13.66c-.01.26.16.46.38.52l.35-.03,4.47-2.06.21-.18h0l.09-.26.4-9.55-.07-.28h0l-.21-.2-4.1-2.05h-.02Z"/>
          <path id="_形状" data-name=" 形状" class="cls-2" d="m355.56,200c24.55,0,44.44,19.9,44.44,44.44v311.11c0,24.55-19.9,44.44-44.44,44.44h-111.11c-24.55,0-44.44-19.9-44.44-44.44V244.44c0-24.55,19.9-44.44,44.44-44.44h111.11Zm214.66,202.47c16.26,5.68,28.21,20.54,29.64,38.37l.14,114.71c0,23.43-18.13,42.63-41.13,44.32l-3.32.12h-133.33v-49.54l147.99-147.99h.01Zm-270.21,64.19c-18.41,0-33.33,14.92-33.33,33.33s14.92,33.33,33.33,33.33,33.33-14.92,33.33-33.33-14.92-33.33-33.33-33.33h0Zm136.35-244.44c16.44-16.44,42.57-17.31,60.03-2.6l2.83,2.6,78.57,78.57c15.68,15.68,17.2,40.16,4.55,57.54l-160.09,160.71V236.35l14.13-14.13h-.02Z"/>
        </g>
      </g>
    </g>
  </g>
  <rect class="cls-1" x="255.57" y="456.64" width="93.93" height="93.93"/>
</svg>