<?xml version="1.0" encoding="UTF-8"?>
<svg xmlns="http://www.w3.org/2000/svg" xmlns:xlink="http://www.w3.org/1999/xlink" width="24px" height="24px" viewBox="0 0 24 24" version="1.1">
<g id="surface1">
<path style=" stroke:none;fill-rule:evenodd;fill:rgb(100%,100%,100%);fill-opacity:1;" d="M 9.359375 0 C 10.859375 0 12 1.199219 12 2.640625 L 12 21.300781 C 12 22.800781 10.800781 23.941406 9.359375 23.941406 L 2.640625 23.941406 C 1.140625 23.941406 0 22.738281 0 21.300781 L 0 2.640625 C 0 1.199219 1.199219 0 2.640625 0 Z M 22.261719 12.121094 C 23.21875 12.480469 23.941406 13.378906 24.058594 14.398438 L 24.058594 21.300781 C 24.058594 22.679688 22.980469 23.878906 21.601562 23.941406 L 21.421875 23.941406 C 21.421875 23.941406 13.441406 23.941406 13.441406 23.941406 L 13.441406 20.941406 L 22.320312 12.058594 Z M 6.058594 15.960938 C 4.980469 15.960938 4.078125 16.859375 4.078125 17.941406 C 4.078125 19.019531 4.980469 19.921875 6.058594 19.921875 C 7.140625 19.921875 8.039062 19.019531 8.039062 17.941406 C 8.039062 16.859375 7.140625 15.960938 6.058594 15.960938 Z M 14.160156 1.320312 C 15.121094 0.359375 16.738281 0.300781 17.761719 1.140625 L 22.679688 6.058594 C 23.640625 7.019531 23.699219 8.460938 22.980469 9.539062 L 13.378906 19.199219 L 13.378906 2.160156 L 14.21875 1.320312 Z M 14.160156 1.320312 "/>
<path style=" stroke:none;fill-rule:nonzero;fill:rgb(100%,100%,100%);fill-opacity:1;" d="M 3.359375 15.421875 L 9 15.421875 L 9 21.058594 L 3.359375 21.058594 Z M 3.359375 15.421875 "/>
</g>
</svg>
