<?xml version="1.0" encoding="UTF-8"?>
<svg xmlns="http://www.w3.org/2000/svg" xmlns:xlink="http://www.w3.org/1999/xlink" width="24px" height="24px" viewBox="0 0 24 24" version="1.1">
<g id="surface1">
<path style=" stroke:none;fill-rule:evenodd;fill:rgb(100%,100%,100%);fill-opacity:1;" d="M 1.757812 1.757812 C 0 3.515625 0 6.34375 0 12 C 0 17.65625 0 20.484375 1.757812 22.242188 C 3.515625 24 6.34375 24 12 24 C 17.65625 24 20.484375 24 22.242188 22.242188 C 24 20.484375 24 17.65625 24 12 C 24 6.34375 24 3.515625 22.242188 1.757812 C 20.484375 0 17.65625 0 12 0 C 6.34375 0 3.515625 0 1.757812 1.757812 Z M 9.542969 5.101562 C 9.027344 5.101562 8.542969 5.101562 8.152344 5.160156 C 7.707031 5.226562 7.246094 5.386719 6.882812 5.789062 C 6.527344 6.183594 6.40625 6.652344 6.351562 7.097656 C 6.300781 7.515625 6.300781 8.035156 6.300781 8.617188 L 6.300781 9.304688 C 6.300781 9.800781 6.703125 10.203125 7.199219 10.203125 C 7.699219 10.203125 8.101562 9.800781 8.101562 9.304688 L 8.101562 8.671875 C 8.101562 8.019531 8.101562 7.609375 8.136719 7.3125 C 8.152344 7.175781 8.175781 7.09375 8.191406 7.050781 C 8.203125 7.011719 8.214844 7 8.21875 6.996094 C 8.21875 6.992188 8.21875 6.988281 8.230469 6.988281 C 8.253906 6.976562 8.304688 6.960938 8.410156 6.941406 C 8.65625 6.90625 9.003906 6.902344 9.597656 6.902344 L 11.097656 6.902344 L 11.097656 17.101562 L 8.996094 17.101562 C 8.5 17.101562 8.097656 17.503906 8.097656 18.003906 C 8.097656 18.5 8.5 18.902344 8.996094 18.902344 L 15.597656 18.902344 C 16.09375 18.902344 16.496094 18.5 16.496094 18.003906 C 16.496094 17.503906 16.09375 17.101562 15.597656 17.101562 L 12.898438 17.101562 L 12.898438 6.898438 L 14.398438 6.898438 C 14.992188 6.898438 15.335938 6.898438 15.582031 6.9375 C 15.691406 6.953125 15.742188 6.976562 15.761719 6.984375 C 15.773438 6.988281 15.773438 6.988281 15.777344 6.992188 C 15.78125 7 15.792969 7.007812 15.804688 7.046875 C 15.820312 7.09375 15.84375 7.171875 15.859375 7.3125 C 15.894531 7.609375 15.894531 8.011719 15.894531 8.667969 L 15.894531 9.300781 C 15.894531 9.796875 16.296875 10.199219 16.792969 10.199219 C 17.292969 10.199219 17.695312 9.796875 17.695312 9.300781 L 17.695312 8.617188 C 17.695312 8.03125 17.695312 7.515625 17.644531 7.09375 C 17.589844 6.648438 17.464844 6.179688 17.113281 5.785156 C 16.746094 5.382812 16.289062 5.222656 15.84375 5.15625 C 15.449219 5.097656 14.96875 5.097656 14.449219 5.097656 L 9.535156 5.097656 Z M 9.542969 5.101562 "/>
</g>
</svg>
