<?xml version="1.0" encoding="UTF-8"?>
<svg id="Layer_1" data-name="Layer 1" xmlns="http://www.w3.org/2000/svg" width="24" height="24" viewBox="0 0 24 24">
  <defs>
    <style>
      .cls-1 {
        fill: #58656d;
        fill-rule: evenodd;
      }
    </style>
  </defs>
  <g id="surface1">
    <path class="cls-1" d="m1.8,1.8C0,3.5,0,6.3,0,12s0,8.5,1.8,10.2c1.8,1.8,4.6,1.8,10.2,1.8s8.5,0,10.2-1.8,1.8-4.6,1.8-10.2,0-8.5-1.8-10.2c-1.8-1.8-4.6-1.8-10.2-1.8S3.5,0,1.8,1.8Zm7.8,3.3c-.5,0-1,0-1.4,0-.4,0-.9.2-1.3.6-.4.4-.5.9-.5,1.3,0,.4,0,.9,0,1.5v.7c0,.5.4.9.9.9s.9-.4.9-.9v-.6c0-.7,0-1.1,0-1.4,0-.1,0-.2,0-.3,0,0,0,0,0,0,0,0,0,0,0,0,0,0,0,0,.2,0,.2,0,.6,0,1.2,0h1.5v10.2h-2.1c-.5,0-.9.4-.9.9s.4.9.9.9h6.6c.5,0,.9-.4.9-.9s-.4-.9-.9-.9h-2.7V6.9h1.5c.6,0,.9,0,1.2,0,.1,0,.2,0,.2,0t0,0s0,0,0,0c0,0,0,.1,0,.3,0,.3,0,.7,0,1.4v.6c0,.5.4.9.9.9s.9-.4.9-.9v-.7c0-.6,0-1.1,0-1.5,0-.4-.2-.9-.5-1.3-.4-.4-.8-.6-1.3-.6-.4,0-.9,0-1.4,0h-4.9,0Z"/>
  </g>
</svg>